<?xml version="1.0" encoding="utf-8"?>
<!-- Generator: Adobe Illustrator 16.2.0, SVG Export Plug-In . SVG Version: 6.00 Build 0)  -->
<!DOCTYPE svg PUBLIC "-//W3C//DTD SVG 1.1//EN" "http://www.w3.org/Graphics/SVG/1.1/DTD/svg11.dtd">
<svg version="1.1" id="Icon" xmlns="http://www.w3.org/2000/svg" xmlns:xlink="http://www.w3.org/1999/xlink" x="0px" y="0px"
	 width="100px" height="100px" viewBox="0 0 100 100" enable-background="new 0 0 100 100" xml:space="preserve">
<path fill="#FFFFFF" d="M99.566,63.715c-3.43-0.822-4.493-3.885-6.174-6.326c-1.259-1.826-2.322-3.785-3.439-5.705
	c-0.535-0.918-1.291-1.842-1.416-2.83c-0.174-1.385,0.439-2.883,0.199-4.241c-0.254-1.429-0.754-3.606-1.312-5.685
	c-0.824-3.081-1.771-5.941-2.225-5.813c-0.626,0.178-1.139,2.202-1.494,3.345c-0.072,0.235-0.141,0.436-0.198,0.573
	c-0.024,0.016-0.046,0.03-0.069,0.045c-0.396-1.08-0.744-1.759-0.969-1.696c-0.619,0.177-1.13,2.165-1.484,3.313
	c-5.151-3.443-10.256-6.956-15.478-10.283c-1.696-1.081-3.631-2.048-5.582-2.422c-6.385-1.222-12.619-0.406-18.598,2.184
	c-6.277,2.718-11.622,6.609-14.837,12.79c-1.848,3.552-3.175,7.372-4.821,11.034c-1.495,3.327-2.762,6.963-6.455,8.523
	C10.267,62.609,5.21,64.436,0.2,66.375c0,0.137,0,0.273,0,0.412c8.729-0.996,20.846-3.816,24.471-8.404
	c2.946-3.247,4.466-4.943,4.732-4.767l-5.016,6.526c-0.77,1.492-3.246,2.934-3.547,3.666c-0.301,0.732,0.263,2.145,0.69,2.894
	c0.001,0.003,0.002,0.006,0.004,0.009c0.769,1.332,1.56,3.083,2.787,3.596c1.14,0.476,4.062-0.641,4.323-0.738
	c0.261-0.096,0.377-0.525,0.044-0.664c-0.333-0.137-1.05-0.19-1.553-0.352c-0.87-0.279-1.896-0.426-2.513-0.998
	c-0.064-0.06-0.104-0.164-0.132-0.289c-0.115-0.498,0.039-1.396,0.347-1.795c1.909-2.479,3.875-4.927,6.018-7.199
	c0.78-0.826,2.141-1.383,2.716,0.552c0.069,0.231,1.165,0.747,1.397,0.702c2.341-0.449,2.502,1.062,3.227,2.644
	c1.272,2.774,5.843,9.647,6.659,10.151c1.27,0.783,4.968,0.006,5.298-0.062c0.329-0.065,0.549-0.558,0.179-0.782
	c-0.372-0.229-1.216-0.428-1.787-0.717c-0.985-0.498-1.918-0.904-2.545-1.703c-0.027-0.035-0.563-1.031-0.579-1.035
	c-0.796-1.502-0.867-3.276-1.03-5.012c-0.044-0.476,0.604-1.15,1.094-1.519c2.091-1.57,4.581-2.815,5.274-5.601
	c0.426-1.705,1.743-1.646,2.633-1.262c1.284,0.555,3.283,1.704,3.267,2.564c-0.032,1.578-2.185,6.785-2.646,7.842
	c-0.455,1.038-0.888,2.218-0.828,3.307c0.043,0.797,0.849,1.594,1.416,2.309c0.459,0.58,1.07,1.041,1.614,1.554
	c0.146-0.146,0.291-0.289,0.437-0.435c-0.767-2.138-0.01-3.731,1.176-5.162c0.195-0.155,6.113-4.322,9.041-5.894
	c1.695-0.909,3.717-1.321,5.645-1.634c0.742-0.121,2.006,0.428,2.387,1.061c1.289,2.137,2.461,4.344,3.649,6.543
	c0.55,1.014,1.103,2.025,1.673,3.026c0.562,0.985,1.247,2.037,2.154,2.642c0.664,0.441,1.784,0.272,2.699,0.246
	c0.738-0.021,1.473-0.234,2.209-0.365c-0.029-0.201-0.059-0.405-0.088-0.608c-2.744-0.841-3.342-3.108-3.719-5.501
	c-0.047-0.309-0.094-0.619-0.141-0.93c-0.263-1.756-0.503-3.533-0.773-5.424c0.819-0.484,1.654-0.75,2.781,0.285
	c0.739,0.68,0.993,1.479,1.498,2.148c0.641,0.85,2.053,1.07,3.016,1.734c1.451,1.002,2.718,2.293,4.223,3.193
	c1.207,0.725,2.613,1.268,3.998,1.51C100.709,69.104,100.021,63.823,99.566,63.715z M90.27,55.943
	c-0.152,0.388-0.776,0.507-1.394,0.264c-0.616-0.241-0.992-0.754-0.839-1.143c0.152-0.39,0.775-0.506,1.393-0.265
	C90.046,55.043,90.422,55.555,90.27,55.943z"/>
</svg>
