<?xml version="1.0" encoding="utf-8"?>
<!-- Generator: Adobe Illustrator 16.2.0, SVG Export Plug-In . SVG Version: 6.00 Build 0)  -->
<!DOCTYPE svg PUBLIC "-//W3C//DTD SVG 1.1//EN" "http://www.w3.org/Graphics/SVG/1.1/DTD/svg11.dtd">
<svg version="1.1" id="Layer_1" xmlns="http://www.w3.org/2000/svg" xmlns:xlink="http://www.w3.org/1999/xlink" x="0px" y="0px"
	 width="100px" height="100px" viewBox="0 0 100 100" enable-background="new 0 0 100 100" xml:space="preserve">
<path d="M21.117,21.593c0,0-2.713-4.171-4.833-3.525c-2.333,0.71-1.137,5.351-1.137,5.351c-4.348,0.754-6.248,7.257-14.025,7.775
	c-2.854,0.19-0.239,7.377,7.543,8.941c10.818,2.175,18.603,7.619,19.69,11.021c0.651,2.038,6.502,22.364,4.017,26.057
	c0,0-4.677,1.088-2.448,5.443c0.586,1.146,10.262,0.784,10.852-1.378c0.233-0.857,2.553-8.252,2.553-8.252
	c2.104,2.418,2.031,5.195,0.319,7.213c-1.397,1.646,1.72,4.904,6.135,3.477c5.298-1.714,5.564-16.115,5.564-21.814
	c0,0,9.973,3.697,20.336,1.877c0,0,1.291,12.527,0.705,13.336c-0.607,0.837-4.277,2.695-1.861,5.675
	c1.66,2.049,6.268,1.562,7.709,0.28c3.076-2.736,6.44-15.158,6.44-15.158s3.025,9.582,2.511,10.094
	c-3.209,3.188-1.162,6.312,2.102,6.312c0,0,5.479,0.927,6.712-4.01c0,0-1.39-25.691-0.437-30.988
	c2.229-12.409-23.119-18.167-26.654-18.508c-6.049-0.584-20.316-0.616-22.051-1.197c-1.59-0.533-5.487-2.761-8.175-3.272
	c-2.176-0.414-5.349,0.502-7.098,0.202c-1.994-0.342-7.55-2.912-7.55-2.912s0.271-3.868-2.288-4.555
	C24.033,18.615,21.117,21.593,21.117,21.593z"/>
</svg>
