<?xml version="1.0" encoding="utf-8"?>
<!-- Generator: Adobe Illustrator 16.2.0, SVG Export Plug-In . SVG Version: 6.00 Build 0)  -->
<!DOCTYPE svg PUBLIC "-//W3C//DTD SVG 1.1//EN" "http://www.w3.org/Graphics/SVG/1.1/DTD/svg11.dtd">
<svg version="1.1" id="Layer_1" xmlns="http://www.w3.org/2000/svg" xmlns:xlink="http://www.w3.org/1999/xlink" x="0px" y="0px"
	 width="100px" height="100px" viewBox="0 0 100 100" enable-background="new 0 0 100 100" xml:space="preserve">
<path fill="#FFFFFF" d="M45.808,59.404c2.476-9.025,7.875-16.869,11.94-19.046c4.889-2.618,13.896-8.526,13.785-11.607
	c-0.109-3.081-0.022-14.219,8.98-15.98c1.848-3.168,3.978-9.657,5.547-9.508c2.916,0.276,1.407,6.604,2.111,9.904
	c3.049,0.97,6.146,0.98,7.66,5.283c1.134,0.88,1.854,1.498,3.697,1.652c1.508,7.416-4.313,6.646-6.471,9.969
	c-0.209,0.382-0.418,0.761-0.627,1.141c0.396,5.953,2.404,12.019,1.188,17.862c-1.057,5.076-5.148,9.003-7.725,13.503
	c0.109,8.079,0.219,17.114,0.328,25.192c0,1.504,0.865,1.67,2.705,1.732c1.398,0.049,3.313,3.139,0.713,3.78
	c1.125,0.104,1.121,2.993,0.215,2.972c-5.801-0.143-7.229,0.32-9.676-3.418c-1.639-2.498-1.359-5.484-3.529-7.016
	c-1.272,2.094-2.896,4.025-6.194,4.8c3.619-0.353,4.683-0.297,6.491,0.3c3.035,1.005,2.541,3.538,0.33,5.334
	c-10.17,0.109-19.512-0.109-29.681,0C20.989,97.225,1.727,97.917,0.276,86.16c-0.222-1.805,0.16-6.616,3.08-6.68
	c2.921-0.063,1.176,5.344,2.284,6.957c2.492,3.636,18.463,5.912,38.169,3.104C45.579,81.709,43.332,68.43,45.808,59.404z"/>
</svg>
