<?xml version="1.0" encoding="utf-8"?>
<!-- Generator: Adobe Illustrator 16.2.0, SVG Export Plug-In . SVG Version: 6.00 Build 0)  -->
<!DOCTYPE svg PUBLIC "-//W3C//DTD SVG 1.1//EN" "http://www.w3.org/Graphics/SVG/1.1/DTD/svg11.dtd">
<svg version="1.1" id="Layer_1" xmlns="http://www.w3.org/2000/svg" xmlns:xlink="http://www.w3.org/1999/xlink" x="0px" y="0px"
	 width="100px" height="100px" viewBox="0 0 100 100" enable-background="new 0 0 100 100" xml:space="preserve">
<path d="M75.754,95.599c-11.632,1.836-9.73-4.491-9.863-11.711l-0.687-14.149L62.217,83.41c-0.545,2.594-1.23,4.972,2.446,6.876
	c2.59,2.248-0.332,5.448-3.121,5.037c-8.519,0.276-7.284-5.376-6.548-9.386l0.479-5.79c0.344-3.943,1.094-6.399,1.295-11.912
	l-1.149-2.988c-9.188-2.381-15.524-4.152-22.664-7.962l-5.114,0.679c-2.311,0.342-1.692,3.066-1.966,4.834l-0.747,4.827
	l-4.228,10.961l-0.331,0.952c-0.279,0.754-0.211,3.745,0.886,5.304l2.237,4.562c1.77,2.59,2.244,8.986-2.515,6.938l-3.541-1.49
	c-2.513-1.021-4.562-8.027-5.436-13.133l0.069-7.15c-2.183-0.676-3.07,12.19-2.183,14.836l2.183,6.675
	C12.939,98.246,10.428,99,8.658,99c-4.154,0-5.992-4.218-6.876-7.76l-0.675-2.646C0.077,84.51,0.619,78.308,2.732,74.7l0.951-2.233
	c1.903-4.431-0.41-7.631-0.951-9.878c-1.77-7.216-3.2-14.225,1.771-21.167l0.346-0.475c-0.144-0.542-1.576-1.695-2.46-4.417
	c-1.907-6.134-3.608-16.197-1.22-16.197l1.562-0.077c4.021,0,2.854,16.607,7.627,15.522l34.574,0.343l6.056-1.641
	c2.25-0.605,4.152-2.034,6.121-3.264l3.94-2.447c4.562,4.562,8.515,7.353,15.046,9.732c1.773,13.537-0.199,16.54-1.902,24.628
	l-0.688,3.27c-1.216,5.786-1.627,11.778-1.351,17.699l0.135,2.789c-0.064,2.857,1.559,3.061,3.807,3.741
	C77.525,91.382,78.543,94.24,75.754,95.599L75.754,95.599L75.754,95.599z"/>
<path d="M83.062,12.919c1.9,1.297,4.285,3.608,6.19,5.646l2.388,2.593c1.562,1.625,3.94,1.425,6.055,1.834l0.744,0.135
	c2.312,1.218,1.576,3.673,0.818,5.512l-0.477,1.153c-2.184,5.247-8.645,5.657-13.208,3.198l-2.035-1.083H82.85l-1.422,0.952
	l-2.927,2.313c-5.92-2.591-10.751-5.714-14.638-9.866l8.923-11.167l2.991-4.352l0.609-1.431l0.687-1.571
	c0.544-1.759,2.788-3.464,4.43-2.789c1.56,0.686,2.58,3.674,2.169,5.249l-0.408,1.77L83.062,12.919L83.062,12.919L83.062,12.919z"/>
</svg>
