<?xml version="1.0" encoding="utf-8"?>
<!-- Generator: Adobe Illustrator 16.2.0, SVG Export Plug-In . SVG Version: 6.00 Build 0)  -->
<!DOCTYPE svg PUBLIC "-//W3C//DTD SVG 1.1//EN" "http://www.w3.org/Graphics/SVG/1.1/DTD/svg11.dtd">
<svg version="1.1" id="Layer_1" xmlns="http://www.w3.org/2000/svg" xmlns:xlink="http://www.w3.org/1999/xlink" x="0px" y="0px"
	 width="100px" height="100px" viewBox="0 0 100 100" enable-background="new 0 0 100 100" xml:space="preserve">
<path d="M96.53,45.064c1.325,3.313,1.878,7.179,1.656,11.376h0.331l0.11-0.332c0.663-4.085,0.442-8.172-0.662-12.148
	c-1.215-3.754-3.203-7.066-5.964-9.718c-0.662-0.773-1.436-1.436-2.65-2.318c-2.319-1.657-4.97-2.982-8.062-4.087
	c-8.504-2.65-17.339-3.313-26.616-1.767c2.099,10.602-0.109,16.233-7.067,17.118c5.411-2.32,7.398-8.173,5.854-17.229
	c-4.418-2.43-8.946-2.981-13.806-1.766c-4.97,1.435-8.283,4.417-10.05,9.166c-1.988,5.522-4.749,10.382-8.283,14.247
	c-5.632,6.294-11.816,8.503-18.664,6.847L1.001,56.44c6.405,3.093,13.583,2.762,21.645-1.215c3.977-2.098,7.51-4.418,10.382-7.067
	c7.73,0.883,11.707,10.159,11.928,28.05h3.534c1.325-6.404,4.086-11.153,8.282-14.025c3.865-2.649,8.172-3.533,13.142-2.871
	c4.528,0.662,8.615,2.43,12.038,5.632c3.756,3.313,5.743,7.068,6.074,11.486h2.651c4.196-8.062,6.405-17.561,6.405-28.271
	C96.971,47.053,96.861,46.169,96.53,45.064z M38.55,31.593L38.55,31.593L38.55,31.593c0.441,0,0.773,0.109,1.104,0.552
	c0.331,0.331,0.441,0.662,0.441,1.214c0,0.442-0.11,0.773-0.441,1.104c-0.331,0.442-0.663,0.553-1.104,0.553
	c-0.552,0-0.995-0.11-1.326-0.553c-0.221-0.331-0.331-0.662-0.331-1.104c0-0.552,0.11-0.883,0.331-1.214
	C37.555,31.702,37.997,31.593,38.55,31.593L38.55,31.593z"/>
</svg>
