<?xml version="1.0" encoding="utf-8"?>
<!-- Generator: Adobe Illustrator 16.2.0, SVG Export Plug-In . SVG Version: 6.00 Build 0)  -->
<!DOCTYPE svg PUBLIC "-//W3C//DTD SVG 1.1//EN" "http://www.w3.org/Graphics/SVG/1.1/DTD/svg11.dtd">
<svg version="1.1" id="Layer_1" xmlns="http://www.w3.org/2000/svg" xmlns:xlink="http://www.w3.org/1999/xlink" x="0px" y="0px"
	 width="100px" height="100px" viewBox="0 0 100 100" enable-background="new 0 0 100 100" xml:space="preserve">
<path d="M100,53.562c0-9.143-15.332-18.619-28.749-23.268c-3.632-3.661-9.089-7.459-10.42-6.72
	c-0.937,0.521,0.405,2.413,1.405,4.294c-1.832-0.328-3.516-0.503-4.978-0.503c-29.213,0-40.689,16.579-43.597,16.655
	C10.901,44.092,4.437,26.55,0.104,29.278c-1.026,0.646,5.888,8.992,5.888,18.037c0,1.332,1.404,2.262,2.075,2.408
	c-0.67,0.146-2.075,1.075-2.075,2.409c0,9.045-6.914,17.392-5.888,18.037C4.437,72.896,10.9,55.354,13.663,55.426
	c0.126,0.002,0.271,0.039,0.43,0.104c4.858,3.979,22.921,16.004,45.017,16.828c0.361,0.014,0.811-0.001,1.328-0.039
	c-1.664,1.771-3.916,3.357-3.729,3.77c0.81,1.799,9.881-2.416,13.658-5.438c8.319-1.808,18.763-4.741,24.327-7.332
	c2.584-1.203-0.553-3.219-0.145-5.883C94.799,55.803,100,56.019,100,53.562z M80.395,46.459c-1.367,0-2.476-1.107-2.476-2.475
	s1.108-2.476,2.476-2.476c1.369,0,2.476,1.108,2.476,2.476C82.869,45.352,81.762,46.459,80.395,46.459z"/>
</svg>
