<?xml version="1.0" encoding="utf-8"?>
<!-- Generator: Adobe Illustrator 16.2.0, SVG Export Plug-In . SVG Version: 6.00 Build 0)  -->
<!DOCTYPE svg PUBLIC "-//W3C//DTD SVG 1.1//EN" "http://www.w3.org/Graphics/SVG/1.1/DTD/svg11.dtd">
<svg version="1.1" id="Layer_1" xmlns="http://www.w3.org/2000/svg" xmlns:xlink="http://www.w3.org/1999/xlink" x="0px" y="0px"
	 width="100px" height="100px" viewBox="0 0 100 100" enable-background="new 0 0 100 100" xml:space="preserve">
<path fill="#FFFFFF" d="M34.359,60.86c-5.604,0.143-5.554-3.896-7.101-8.164c-2.071-5.714-5.816-10.641-8.23-16.217
	c-1.192-2.75-2.726-9.071-5.282-3.004c-1.132,2.687-0.281,8.293-4.494,7.939c0.672-2.624,0.749-4.078-0.458-6.582
	c-0.522-0.964-0.846-1.991-0.97-3.083c-0.858-0.001-1.561-0.326-2.104-0.978c-3.381-4.312,2.962-8.036,2.255-11.967
	c-1.69-0.887-6.647,1.69-7.319-0.385c1.276-0.447,1.634-2.032,2.677-2.771c2.172-1.538,4.441-0.363,6.482-2.716
	c2.522-2.908,4.266-8.086,9.092-6.727C22.72,7.279,26.628,6.5,30.534,7.637c2.334,0.678,4.425,1.919,6.56,3.044
	c1.541,0.81,4.767,1.265,5.915,2.552c-1.797,1.755-9.347-2.24-11.236-2.539c-2.079-0.328-10.256,0.264-10.655,3.583
	c4.691,0.013,8.412,7.464,12.423,9.333c2.814,1.312,5.725,1.826,8.812,1.827c4.062,0.002,7.618,1.73,11.679,1.96
	c7.759,0.439,15.403-1.801,23.024-2.911c3.342-0.488,13.897-0.668,15.147,4.149c2.962-3.554-7.976-3.628-5.554-8.6
	c0.936,0.195,1.855,0.136,2.759-0.178c1.062,0.396,2.086,0.872,3.075,1.425c0.432,2.491,3.131,3.621,3.809,6.197
	c0.192,1.307,0.253,2.621,0.179,3.94c0.116,1.704,1.97,2.693,2.565,4.23c1.001,2.583-0.701,6.219-1.335,8.728
	c-1.336,5.293-4.006,10.518-4.112,16.054c-0.055,2.874-2.43,5.73-0.809,8.091c1.879,2.735,1.686,4.465,1.654,7.716
	c-0.024,2.737,1.137,5.423,1.742,8.058c0.918,3.99,0.505,4.616-2.75,6.567c-1.277,0.767-5.032,1.183-6.021-0.353
	c-0.348-0.541,1.585-4.213,1.68-5.18c0.411-4.119,0.531-10.352-1.007-14.238c-1.127-2.845-1.428-5.395-3.437-7.631
	c-2.037-2.267-1.229-3.833-2.338-6.479c-2.366,4.868-9.749,5.685-14.34,5.887c-3.608,0.159-7.236,0.162-10.821-0.312
	c-3-0.396-8.254-3.095-11.074-1.162c-3.091,2.12-2.061,8.018-2.231,11.179c-0.168,3.121-0.931,6.204-1.159,9.331
	c-0.162,2.22-0.152,4.464,0.199,6.666c0.24,1.51,1.655,2.433,2.096,3.861c-1.873,1.651-7.294,1.647-9.684,1.553
	c0.361-0.388,0.528,0.3,0.552-0.242c-0.114,0.069-1.483,0.177-1.633,0.272c0.017-0.561-0.003-2.041,0.416-2.447
	c-1.06-0.014-2.037,0.427-3.177,0.399c3.948-5.219,3.987-9.391,3.188-15.385C34.117,72.696,37.41,63.971,34.359,60.86
	C32.327,60.912,34.797,61.306,34.359,60.86z"/>
</svg>
