<?xml version="1.0" encoding="utf-8"?>
<!-- Generator: Adobe Illustrator 16.2.0, SVG Export Plug-In . SVG Version: 6.00 Build 0)  -->
<!DOCTYPE svg PUBLIC "-//W3C//DTD SVG 1.1//EN" "http://www.w3.org/Graphics/SVG/1.1/DTD/svg11.dtd">
<svg version="1.1" id="Layer_1" xmlns="http://www.w3.org/2000/svg" xmlns:xlink="http://www.w3.org/1999/xlink" x="0px" y="0px"
	 width="100px" height="100px" viewBox="0 0 100 100" enable-background="new 0 0 100 100" xml:space="preserve">
<g>
	<path d="M46.316,63.818c-0.024-0.867-0.036-1.518-0.036-1.951c0-2.553,0.361-4.757,1.084-6.612c0.53-1.397,1.385-2.806,2.565-4.228
		c0.867-1.036,2.427-2.548,4.68-4.535c2.252-1.988,3.716-3.571,4.391-4.752c0.674-1.18,1.012-2.469,1.012-3.866
		c0-2.53-0.988-4.752-2.963-6.667c-1.977-1.915-4.396-2.873-7.264-2.873c-2.771,0-5.083,0.868-6.938,2.602
		c-1.855,1.734-3.072,4.444-3.65,8.13l-6.685-0.795c0.602-4.938,2.391-8.721,5.366-11.347c2.975-2.625,6.907-3.938,11.798-3.938
		c5.179,0,9.311,1.409,12.395,4.228c3.083,2.819,4.625,6.228,4.625,10.227c0,2.312-0.542,4.444-1.626,6.396
		s-3.204,4.324-6.359,7.119c-2.12,1.879-3.506,3.264-4.156,4.156s-1.133,1.915-1.445,3.071s-0.494,3.035-0.541,5.637H46.316z
		 M45.919,76.863v-7.407h7.407v7.407H45.919z"/>
</g>
</svg>
